<?xml version="1.0" encoding="UTF-8" standalone="no"?>
<svg
   width="19"
   height="22"
   version="1.1"
   id="svg4"
   sodipodi:docname="7.svg"
   inkscape:version="1.1.1 (3bf5ae0d25, 2021-09-20)"
   xmlns:inkscape="http://www.inkscape.org/namespaces/inkscape"
   xmlns:sodipodi="http://sodipodi.sourceforge.net/DTD/sodipodi-0.dtd"
   xmlns="http://www.w3.org/2000/svg"
   xmlns:svg="http://www.w3.org/2000/svg">
  <defs
     id="defs8">
    <inkscape:path-effect
       effect="spiro"
       id="path-effect564"
       is_visible="true"
       lpeversion="1" />
  </defs>
  <sodipodi:namedview
     id="namedview6"
     pagecolor="#505050"
     bordercolor="#ffffff"
     borderopacity="1"
     inkscape:pageshadow="0"
     inkscape:pageopacity="0"
     inkscape:pagecheckerboard="1"
     showgrid="false"
     inkscape:zoom="37.818182"
     inkscape:cx="9.5060096"
     inkscape:cy="10.986779"
     inkscape:window-width="1920"
     inkscape:window-height="1017"
     inkscape:window-x="-8"
     inkscape:window-y="1072"
     inkscape:window-maximized="1"
     inkscape:current-layer="svg4" />
  <path
     fill="#9fa1a6"
     d="M19 0v19.027A2.98 2.98 0 0 1 16.03 22H2.97A2.98 2.98 0 0 1 0 19.027V-.001zm-5.047 3.12a1.337 1.337 0 1 0 1.336-1.337c-.738 0-1.336.598-1.336 1.337zm-3.86 0a1.337 1.337 0 1 0 2.674.002 1.337 1.337 0 0 0-2.673-.002zm-3.859 0A1.337 1.337 0 1 0 7.57 1.784c-.738 0-1.336.598-1.336 1.337zm-3.859 0a1.337 1.337 0 1 0 2.674.002 1.337 1.337 0 0 0-2.674-.002zm13.953 15.906v-8.622H2.672v8.622zm.594-13.082H2.078v1.487h14.844z"
     id="path2" />
  <path
     style="fill:#800000;stroke:#000000;stroke-width:1px;stroke-linecap:butt;stroke-linejoin:miter;stroke-opacity:1"
     d="M 8.3557692,11.634615 C 8.6237367,11.073116 8.9927894,10.560043 9.4399038,10.127404 9.6024633,9.9701074 9.7760388,9.822776 9.96875,9.7043269 c 0.246079,-0.1512511 0.519081,-0.2529069 0.793269,-0.34375 0.124047,-0.041099 0.249393,-0.080337 0.378629,-0.099703 0.129235,-0.019366 0.263358,-0.018247 0.388198,0.020376 0.20494,0.063405 0.371258,0.2266821 0.46179,0.421167 0.09053,0.1944848 0.109733,0.4172431 0.07971,0.6296551 -0.06005,0.424824 -0.303486,0.797075 -0.515056,1.170332 -0.173099,0.305386 -0.328261,0.620689 -0.502403,0.925481 -0.07649,0.133881 -0.156607,0.265662 -0.237981,0.396634 -0.116021,0.186737 -0.235485,0.372992 -0.384778,0.534371 -0.149294,0.161378 -0.331197,0.298043 -0.5407029,0.364668 -0.1612977,0.05129 -0.3332787,0.05957 -0.5024039,0.05288 C 8.5646155,13.743915 7.79851,13.373128 7.0600942,13.009611 6.865355,12.913742 6.6699139,12.817465 6.4900678,12.695935 6.3102217,12.574405 6.1452831,12.425973 6.0288462,12.242788 5.9231508,12.076502 5.859728,11.883885 5.84375,11.6875 5.8163492,11.350718 5.9277434,11.013899 6.1009558,10.723778 6.2741682,10.433656 6.5068989,10.184235 6.7427885,9.9423077 7.1437573,9.5310754 7.5602341,9.1334985 8.0120192,8.7788462 8.3489885,8.5143245 8.7046473,8.274422 9.0432692,8.0120192 9.3457799,7.7775994 9.6344413,7.5254173 9.9423077,7.2980769 10.481376,6.9000077 11.074393,6.5816458 11.634615,6.2139423 c 0.228928,-0.1502577 0.452548,-0.3088665 0.6875,-0.4495192 0.379085,-0.2269379 0.784778,-0.4054358 1.189904,-0.5817308 0.316115,-0.137561 0.639082,-0.275883 0.982213,-0.3092493 0.171565,-0.016683 0.346924,-0.0063 0.512079,0.043067 0.165156,0.049362 0.319863,0.1388022 0.435997,0.2661823 0.10887,0.119412 0.181207,0.268562 0.228171,0.4231785 0.04696,0.1546165 0.06972,0.3154393 0.08914,0.47586 0.06054,0.5001348 0.09018,1.0074738 0.02644,1.5072115 -0.0547,0.4288622 -0.177251,0.8457742 -0.264423,1.2692308 -0.06464,0.3140066 -0.109875,0.6321113 -0.132212,0.9519231 -0.03022,0.4327158 -0.01885,0.8706998 -0.105769,1.2956728 -0.185357,0.906292 -0.791803,1.656912 -1.295673,2.432693 -0.154611,0.238046 -0.310452,0.490999 -0.555289,0.634615 -0.06802,0.0399 -0.141182,0.07015 -0.211538,0.105769 -0.155145,0.07854 -0.295963,0.182817 -0.449519,0.264423 -0.373441,0.198462 -0.803033,0.254212 -1.216347,0.34375 -0.660262,0.143035 -1.307788,0.380522 -1.9831726,0.396635 -0.3444512,0.0082 -0.6934428,-0.04139 -1.03125,0.02644 -0.2310456,0.04639 -0.4521293,0.147045 -0.6875,0.158654 -0.1318367,0.0065 -0.2640088,-0.01534 -0.3957122,-0.0065 -0.065852,0.0044 -0.1317535,0.01665 -0.1922629,0.043 -0.060509,0.02635 -0.1155532,0.06744 -0.1524095,0.122188 -0.040677,0.06042 -0.057403,0.134614 -0.058022,0.207452 -6.187e-4,0.07284 0.01398,0.144943 0.03158,0.215625 0.039332,0.157965 0.094241,0.313582 0.1057692,0.475961 0.00437,0.06158 0.00243,0.123412 0,0.185096 -0.018794,0.477824 -0.066298,0.954256 -0.1322115,1.427885 -0.01652,0.118708 -0.034797,0.239284 -0.086194,0.347557 -0.025699,0.05414 -0.059686,0.104731 -0.103079,0.146061 -0.043393,0.04133 -0.09644,0.07318 -0.154477,0.08811 -0.055509,0.01428 -0.1144136,0.01284 -0.170363,3.93e-4 C 6.490031,18.709102 6.436871,18.685919 6.3871327,18.657437 6.2876561,18.600471 6.2018434,18.522805 6.1081704,18.456729 5.9179521,18.322551 5.6975231,18.237598 5.500117,18.114238 c -0.098703,-0.06168 -0.1921033,-0.133504 -0.2679349,-0.2218 -0.075832,-0.0883 -0.133675,-0.193934 -0.1552617,-0.308305 -0.028331,-0.150103 0.00754,-0.307625 0.079049,-0.442608 0.071506,-0.134983 0.1767745,-0.249403 0.2911434,-0.350662 0.030216,-0.02675 0.061375,-0.05286 0.0965,-0.07273 0.035125,-0.01987 0.074683,-0.03336 0.1150388,-0.03304 0.016245,1.3e-4 0.032396,0.0025 0.048632,0.0031 0.016235,5.83e-4 0.032934,-7.07e-4 0.047718,-0.0074 0.00739,-0.0034 0.014216,-0.0081 0.019617,-0.01416 0.0054,-0.0061 0.00934,-0.0135 0.010866,-0.02148 0.00152,-0.008 5.542e-4,-0.01649 -0.00315,-0.02372 -0.0037,-0.0072 -0.01019,-0.01308 -0.017917,-0.01559 -0.00847,-0.0027 -0.017657,-0.0014 -0.026442,0 -0.2824664,0.04633 -0.5347163,0.204272 -0.7556747,0.386236 -0.2209583,0.181964 -0.4190756,0.390918 -0.6457676,0.565687 -0.1979945,0.152644 -0.4195094,0.279279 -0.6610577,0.34375 -0.1805294,0.04819 -0.3716181,0.06076 -0.5552885,0.02644 -0.1546451,-0.0289 -0.303623,-0.09134 -0.4290458,-0.18631 -0.1254228,-0.09497 -0.2267144,-0.222812 -0.2848965,-0.368979 -0.07931,-0.199247 -0.076315,-0.421447 -0.052885,-0.634615 0.033138,-0.30149 0.1056878,-0.600806 0.2388553,-0.873315 0.1331675,-0.272508 0.3290183,-0.517748 0.5808562,-0.686781 0.1518461,-0.101919 0.3231244,-0.175435 0.5024039,-0.211539 0.1824032,-0.03673 0.3701154,-0.03468 0.5552884,-0.05288 0.044064,-0.0043 0.089025,-0.0098 0.1322116,0 0.03684,0.0083 0.070934,0.02773 0.097802,0.05427 0.026868,0.02655 0.046552,0.06009 0.057818,0.09614 0.022532,0.0721 0.010738,0.152399 -0.023409,0.219781 -0.031315,0.06179 -0.079954,0.113175 -0.1322115,0.158654 C 4.2376362,15.551389 4.08586,15.632042 3.9227617,15.663808 3.7596634,15.695573 3.5853547,15.676785 3.4375,15.600962 3.352585,15.557416 3.2780369,15.496546 3.1995192,15.442308 3.0726256,15.354653 2.9349022,15.284056 2.8028846,15.204327 2.3823104,14.95033 2.0172996,14.598572 1.7716346,14.173077 1.718264,14.080639 1.6703282,13.984379 1.6394231,13.882212 c -0.062407,-0.206308 -0.051513,-0.434657 0.033921,-0.632542 0.085434,-0.197886 0.2454323,-0.363258 0.4420402,-0.451593 0.212994,-0.0957 0.4540749,-0.09968 0.6875,-0.105769 0.1322126,-0.0035 0.2646246,-0.0081 0.3966346,0 0.3775932,0.02314 0.7480845,0.15281 1.0576923,0.370192"
     id="path562"
     inkscape:original-d="M 8.3557692,11.634615 C 8.4440044,10.984774 8.9727779,10.536139 9.4399038,10.127404 9.6185663,9.9710742 9.7632785,9.8350815 9.96875,9.7043269 c 0.240227,-0.1528715 0.521159,-0.2660043 0.793269,-0.34375 0.133029,-0.038008 0.655861,-0.2596461 0.766827,-0.079327 0.500675,0.8135961 0.41112,1.3818571 0.02644,2.2211541 -0.152715,0.333196 -0.307602,0.616091 -0.502403,0.925481 -0.08215,0.130475 -0.147891,0.271509 -0.237981,0.396634 -0.172264,0.239255 -0.662612,0.775336 -0.9254809,0.899039 -0.1530108,0.072 -0.3422074,0.05288 -0.5024039,0.05288 -0.8981638,0 -1.5799182,-0.304395 -2.326923,-0.766827 C 6.739156,12.810938 6.2684601,12.537698 6.0288462,12.242788 5.9252481,12.115283 5.8591198,11.825828 5.84375,11.6875 5.7632,10.96255 6.2688094,10.416287 6.7427885,9.9423077 7.149084,9.5360121 7.5680514,9.1444667 8.0120192,8.7788462 8.7579457,8.1645537 8.2221032,8.6436854 9.0432692,8.0120192 10.004364,7.2727157 9.0555092,7.9354633 9.9423077,7.2980769 10.489843,6.9045361 11.061654,6.5665338 11.634615,6.2139423 c 1.381591,-0.8502094 -0.876954,0.5003283 0.6875,-0.4495192 0.382395,-0.2321681 0.774993,-0.4157663 1.189904,-0.5817308 0.5574,-0.2229598 1.467394,-0.5891388 1.930289,0 0.195497,0.248815 0.271505,0.5967405 0.317307,0.8990385 0.0738,0.4870722 0.08634,1.0180584 0.02644,1.5072115 -0.08158,0.6662171 -0.143197,0.6630973 -0.264423,1.2692308 -0.03307,0.1653475 -0.121621,0.7665796 -0.132212,0.9519231 -0.0251,0.4392788 -0.0073,0.8594438 -0.105769,1.2956728 -0.200597,0.888356 -0.714559,1.74262 -1.295673,2.432693 -0.170659,0.202657 -0.337275,0.474738 -0.555289,0.634615 -0.06357,0.04662 -0.142827,0.06712 -0.211538,0.105769 -0.173299,0.09748 -0.264564,0.182221 -0.449519,0.264423 -0.381428,0.169524 -0.814808,0.239001 -1.216347,0.34375 -0.700277,0.182681 -1.246137,0.35328 -1.9831726,0.396635 -0.3401184,0.02001 -0.6930112,-0.0074 -1.03125,0.02644 -0.2309809,0.0231 -0.4600042,0.120738 -0.6875,0.158654 -0.2468327,0.04114 -0.5125669,0.02847 -0.7403846,0.158654 -0.1152238,0.06584 -0.04568,0.320479 -0.026442,0.423077 0.029951,0.15974 0.082785,0.315071 0.1057692,0.475961 0.00873,0.06108 -0.00385,0.123518 0,0.185096 0.035616,0.569861 0.021052,0.876138 -0.1322115,1.427885 -0.048622,0.175038 -0.09282,0.581731 -0.34375,0.581731 -0.1905789,0 -0.4368376,-0.178755 -0.6081731,-0.264423 -0.3815034,-0.190752 -0.9420626,-0.39693 -1.03125,-0.872596 -0.059543,-0.317563 0.1282817,-0.611837 0.3701923,-0.79327 0.3149541,-0.236215 -0.085509,0.04275 0.2115384,-0.105769 0.039418,-0.01971 0.074607,-0.04816 0.1057693,-0.07933 0.00623,-0.0062 -0.01876,-0.0043 -0.026442,0 -0.4919334,0.276713 -0.9320625,0.639003 -1.4014423,0.951923 -0.2645996,0.1764 -0.3676189,0.270391 -0.6610577,0.34375 -0.1343133,0.03358 -0.4348495,0.03247 -0.5552885,0.02644 -0.4559298,-0.0228 -0.555776,-0.09836 -0.7139423,-0.555289 -0.044093,-0.12738 -0.078708,-0.500333 -0.052885,-0.634615 0.075601,-0.393123 0.4928571,-1.294527 0.8197115,-1.560096 0.1189841,-0.09667 0.353302,-0.18749 0.5024039,-0.211539 0.1835614,-0.02961 0.3699024,-0.03862 0.5552884,-0.05288 0.043941,-0.0034 0.090947,-0.01548 0.1322116,0 0.1060727,0.03978 0.1760324,0.273786 0.1322115,0.370192 -0.028486,0.06267 -0.079327,0.114583 -0.1322115,0.158654 C 4.150541,15.619341 3.6948619,15.706934 3.4375,15.600962 3.349342,15.564661 3.2803666,15.492837 3.1995192,15.442308 3.0687716,15.36059 2.9318534,15.288824 2.8028846,15.204327 2.3277655,14.893042 2.0451758,14.681082 1.7716346,14.173077 1.7211424,14.079306 1.6663063,13.985264 1.6394231,13.882212 1.5301285,13.463249 1.7612625,13.028256 2.1153846,12.798077 c 0.1568494,-0.101952 0.5455799,-0.101191 0.6875,-0.105769 0.1321428,-0.0043 0.2657519,-0.0187 0.3966346,0 0.3692117,0.05274 0.69812,0.280299 1.0576923,0.370192"
     inkscape:path-effect="#path-effect564" />
</svg>
